# xmcd
#
# Track frame offsets:
#	150
#	16014
#	29220
#	38048
#	49682
#	69148
#	90408
#	99687
#	112394
#	125528
# Disc length: 1813 seconds
# Revision: 1
# Processed by: cddbd v1.5.2PL0 Copyright (c) Steve Scherf et al.
#
# Submitted via: libkcddb 0.31
#
DISCID=8007130a
DTITLE=Bruce Delaplain and Blues Tonic - Ten Tonics for the blues
DYEAR=2002
DGENRE=Unknown
TTITLE0=She Caught the Katy
TTITLE1=Jambalaya
TTITLE2=Great Balls o' Fire
TTITLE3=Ain't That a Shame
TTITLE4=Stormy Monday
TTITLE5=Give Me Back My Wig
TTITLE6=I Want You
TTITLE7=Teena Neena Nu
TTITLE8=Water Coast
TTITLE9=Oh Pretty Woman
EXTD=
EXTT0=
EXTT1=
EXTT2=
EXTT3=
EXTT4=
EXTT5=
EXTT6=
EXTT7=
EXTT8=
EXTT9=
PLAYORDER=
